<?xml version="1.0" encoding="UTF-8"?>
<svg id="FONDO" xmlns="http://www.w3.org/2000/svg" viewBox="0 0 1378.11 1186.51">
  <defs>
    <style>
      .cls-1 {
        fill: #818182;
      }
    </style>
  </defs>
  <path class="cls-1" d="M1143.09,627.84v-10.77c0-23.97-19.43-43.4-43.4-43.4h-34.52c-2.94-79.59-68.37-143.21-148.68-143.21h-107.07c-5.83-24.28-25.53-44.9-52.67-57.06-11.88-5.33-25.2-9.03-39.42-10.7v-31.6c33.52-7.84,58.49-37.9,58.49-73.81,0-41.87-33.95-75.82-75.82-75.82s-75.82,33.95-75.82,75.82c0,35.91,24.97,65.97,58.49,73.81v31.59c-36.67,4.32-67.42,22.14-82.93,46.54-4.24,6.64-7.36,13.77-9.15,21.22h-107.07c-80.31,0-145.74,63.62-148.68,143.21h-34.52c-23.97,0-43.4,19.43-43.4,43.4v10.77c-36.85,4.56-65.23,33.24-65.23,67.92,0,3.09.23,6.12.66,9.1,1.95,13.34,8.12,25.47,17.26,35.24,11.75,12.57,28.42,21.24,47.3,23.57v10.77h0c0,13.86,6.5,26.19,16.61,34.13,7.38,5.8,16.67,9.27,26.79,9.27h36.51c1.79,10.56,4.69,20.73,8.58,30.39,22,54.72,75.54,93.33,138.11,93.33h432.97c73.63,0,134.76-53.48,146.68-123.72h36.52c10.11,0,19.41-3.47,26.79-9.27,10.11-7.95,16.61-20.28,16.61-34.13h0v-10.77c18.89-2.34,35.55-11.01,47.31-23.57,9.14-9.77,15.32-21.9,17.26-35.24.43-2.98.66-6.01.66-9.1,0-34.68-28.38-63.35-65.23-67.92Z"/>
</svg>